<svg width="85" height="21" viewBox="0 0 85 21" fill="none" xmlns="http://www.w3.org/2000/svg">
<path d="M9.59675 0.972778V7.74253H3.42846V0.972778H0.5V17.1328H3.42846V10.5829H9.59675V17.1328H12.5252V0.972778H9.59675Z" fill="#33475B"/>
<path d="M21.8974 11.9091C21.8974 12.5567 21.6422 13.1779 21.1878 13.6358C20.7335 14.0938 20.1173 14.351 19.4747 14.351C18.8322 14.351 18.216 14.0938 17.7616 13.6358C17.3073 13.1779 17.052 12.5567 17.052 11.9091V4.98749H14.2742V11.9091C14.2742 13.298 14.8216 14.63 15.796 15.612C16.7703 16.5941 18.0918 17.1459 19.4697 17.1459C20.8476 17.1459 22.1691 16.5941 23.1435 15.612C24.1178 14.63 24.6652 13.298 24.6652 11.9091V4.98749H21.8974V11.9091Z" fill="#33475B"/>
<path d="M42.4786 5.70047C42.4786 4.28173 43.4098 3.83195 44.43 3.83195C45.2521 3.83195 46.3383 4.4625 47.0485 5.22755L48.8679 3.0669C47.9596 1.82894 46.1173 0.972778 44.6093 0.972778C41.5962 0.972778 39.4167 2.75163 39.4167 5.70047C39.4167 11.1715 46.0513 9.43605 46.0513 12.4977C46.0513 13.4421 45.1416 14.2765 44.1 14.2765C42.4571 14.2765 41.9248 13.4667 41.1701 12.6105L39.1513 14.7263C40.4426 16.3244 42.0352 17.1357 43.9436 17.1357C46.806 17.1357 49.1089 15.3352 49.1089 12.5208C49.1089 6.44672 42.4743 8.33403 42.4743 5.70047" fill="#33475B"/>
<path d="M83.5228 14.5513C81.8814 14.5513 81.4151 13.8355 81.4151 12.7392V7.88716H83.9662V5.42859H81.4151V2.18472L78.5985 3.45884V13.3423C78.5985 15.8703 80.3289 17.1444 82.7021 17.1444C83.0743 17.1512 83.4463 17.1212 83.8127 17.0547L84.4999 14.5051C84.19 14.5268 83.8342 14.5484 83.5228 14.5484" fill="#33475B"/>
<path d="M32.4706 5.06847C31.0946 5.06847 30.1347 5.47051 29.2064 6.38886V1.06967H26.4243V10.9285C26.4243 14.6193 29.0715 17.1473 32.0459 17.1473C35.346 17.1473 38.2486 14.5745 38.2486 11.1093C38.2486 7.68757 35.577 5.06991 32.4706 5.06991V5.06847ZM32.4534 14.3257C31.8291 14.3257 31.2188 14.1391 30.6997 13.7895C30.1806 13.4399 29.776 12.943 29.5371 12.3616C29.2982 11.7802 29.2356 11.1405 29.3574 10.5233C29.4792 9.90613 29.7799 9.33921 30.2213 8.89424C30.6628 8.44928 31.2253 8.14625 31.8376 8.02349C32.4499 7.90072 33.0846 7.96373 33.6614 8.20454C34.2382 8.44535 34.7312 8.85316 35.078 9.37638C35.4249 9.89961 35.61 10.5148 35.61 11.144C35.61 11.9879 35.2774 12.7971 34.6854 13.3938C34.0935 13.9905 33.2906 14.3257 32.4534 14.3257Z" fill="#33475B"/>
<path d="M62.6792 10.9618C62.6792 7.4909 59.7823 4.92386 56.4765 4.92386C53.5021 4.92386 50.8549 7.45185 50.8549 11.1426V21.0072H53.637V15.6808C54.5639 16.5977 55.5252 17.0012 56.8997 17.0012C60.0061 17.0012 62.6778 14.385 62.6778 10.9618H62.6792ZM60.0449 10.9271C60.0449 11.5564 59.8597 12.1715 59.5129 12.6948C59.166 13.218 58.673 13.6258 58.0962 13.8666C57.5194 14.1074 56.8848 14.1704 56.2724 14.0477C55.6601 13.9249 55.0977 13.6219 54.6562 13.1769C54.2148 12.7319 53.9141 12.165 53.7923 11.5478C53.6705 10.9306 53.733 10.2909 53.9719 9.70953C54.2109 9.12816 54.6155 8.63125 55.1346 8.28164C55.6537 7.93203 56.2639 7.74543 56.8883 7.74543C57.7254 7.74543 58.5283 8.08064 59.1203 8.67732C59.7123 9.274 60.0449 10.0833 60.0449 10.9271Z" fill="#33475B"/>
</svg>
